<svg width="318.7113037109375px" height="122.02138671875px" xmlns="http://www.w3.org/2000/svg" viewBox="90.64434814453125 13.989306640625003 318.7113037109375 122.02138671875" style="background: rgba(0, 0, 0, 0); fill: rgb(0, 0, 0) !important;" preserveAspectRatio="xMidYMid"><defs><linearGradient id="editing-gradient-gradient" x1="0.8009075115760242" x2="0.1990924884239758" y1="0.10068224497635364" y2="0.8993177550236464" gradientUnits="objectBoundingBox"><stop offset="0" stop-color="#7800f7"></stop><stop offset="1" stop-color="#00ffff"></stop></linearGradient></defs><g style="fill: rgb(0, 0, 0) !important;"><g transform="translate(142.03468811511993, 98.67218780517578)" style="fill: rgb(0, 0, 0) !important;"><path d="M26.05-29.57L26.05-29.57L26.05-29.57Q27.01-31.49 27.01-33.28L27.01-33.28L27.01-33.28Q27.01-35.07 26.82-36.06L26.82-36.06L26.82-36.06Q26.62-37.06 26.18-37.82L26.18-37.82L26.18-37.82Q25.22-39.49 23.30-39.49L23.30-39.49L23.30-39.49Q20.93-39.49 19.01-37.76L19.01-37.76L19.01-37.76Q16.96-35.97 16.96-33.15L16.96-33.15L16.96-33.15Q16.96-31.36 18.21-29.98L18.21-29.98L18.21-29.98Q19.46-28.61 21.38-27.33L21.38-27.33L21.38-27.33Q23.30-26.05 25.47-24.77L25.47-24.77L25.47-24.77Q27.65-23.49 29.57-21.95L29.57-21.95L29.57-21.95Q33.98-18.43 33.98-13.70L33.98-13.70L33.98-13.70Q33.98-10.50 32.29-7.78L32.29-7.78L32.29-7.78Q30.59-5.06 27.78-3.07L27.78-3.07L27.78-3.07Q21.63 1.28 13.50 1.28L13.50 1.28L13.50 1.28Q6.91 1.28 3.52-0.86L3.52-0.86L3.52-0.86Q0.13-3.01 0.13-6.27L0.13-6.27L0.13-6.27Q0.13-12.10 4.67-13.57L4.67-13.57L4.67-13.57Q5.95-14.02 7.90-14.02L7.90-14.02L7.90-14.02Q9.86-14.02 12.10-13.18L12.10-13.18L12.10-13.18Q11.07-10.56 11.07-8.19L11.07-8.19L11.07-8.19Q11.07-3.07 14.72-3.07L14.72-3.07L14.72-3.07Q17.09-3.07 19.04-4.80L19.04-4.80L19.04-4.80Q20.99-6.53 20.99-8.48L20.99-8.48L20.99-8.48Q20.99-10.43 19.74-11.84L19.74-11.84L19.74-11.84Q18.50-13.25 16.64-14.37L16.64-14.37L16.64-14.37Q14.78-15.49 12.64-16.58L12.64-16.58L12.64-16.58Q10.50-17.66 8.64-19.20L8.64-19.20L8.64-19.20Q4.29-22.72 4.29-28.35L4.29-28.35L4.29-28.35Q4.29-32 6.08-34.85L6.08-34.85L6.08-34.85Q7.87-37.70 10.75-39.62L10.75-39.62L10.75-39.62Q16.51-43.52 23.58-43.52L23.58-43.52L23.58-43.52Q30.66-43.52 34.08-41.41L34.08-41.41L34.08-41.41Q37.50-39.30 37.50-35.71L37.50-35.71L37.50-35.71Q37.50-32.58 35.07-30.59L35.07-30.59L35.07-30.59Q32.96-28.93 30.40-28.93L30.40-28.93L30.40-28.93Q27.84-28.93 26.05-29.57ZM64.77-10.82L64.77-10.82L64.77-10.82Q66.37-9.73 66.37-7.33L66.37-7.33L66.37-7.33Q66.37-4.93 65.15-3.39L65.15-3.39L65.15-3.39Q63.94-1.86 61.95-0.83L61.95-0.83L61.95-0.83Q57.86 1.28 53.44 1.28L53.44 1.28L53.44 1.28Q49.02 1.28 46.43 0.32L46.43 0.32L46.43 0.32Q43.84-0.64 42.11-2.43L42.11-2.43L42.11-2.43Q38.72-5.82 38.72-12.03L38.72-12.03L38.72-12.03Q38.72-21.70 43.97-27.58L43.97-27.58L43.97-27.58Q49.60-33.92 59.39-33.92L59.39-33.92L59.39-33.92Q65.47-33.92 68.48-31.36L68.48-31.36L68.48-31.36Q70.72-29.44 70.72-26.30L70.72-26.30L70.72-26.30Q70.72-15.04 51.26-15.04L51.26-15.04L51.26-15.04Q51.01-13.38 51.01-11.97L51.01-11.97L51.01-11.97Q51.01-9.02 52.32-7.90L52.32-7.90L52.32-7.90Q53.63-6.78 56.06-6.78L56.06-6.78L56.06-6.78Q58.50-6.78 61.09-7.90L61.09-7.90L61.09-7.90Q63.68-9.02 64.77-10.82ZM51.71-17.79L51.71-17.79L51.71-17.79Q56.26-17.79 58.88-20.61L58.88-20.61L58.88-20.61Q61.50-23.30 61.50-27.58L61.50-27.58L61.50-27.58Q61.50-29.06 60.96-29.86L60.96-29.86L60.96-29.86Q60.42-30.66 59.33-30.66L59.33-30.66L59.33-30.66Q58.24-30.66 57.31-30.24L57.31-30.24L57.31-30.24Q56.38-29.82 55.42-28.42L55.42-28.42L55.42-28.42Q53.06-25.22 51.71-17.79ZM75.68-1.92L75.68-1.92L75.68-1.92Q74.18-3.58 73.50-6.21L73.50-6.21L73.50-6.21Q72.83-8.83 72.83-13.12L72.83-13.12L72.83-13.12Q72.83-17.41 74.30-21.31L74.30-21.31L74.30-21.31Q75.78-25.22 78.46-28.03L78.46-28.03L78.46-28.03Q83.97-33.92 93.06-33.92L93.06-33.92L93.06-33.92Q96.32-33.92 98.69-32.83L98.69-32.83L109.63-33.92L104.90-8.96L104.90-8.96Q104.70-8.19 104.70-6.78L104.70-6.78L104.70-6.78Q104.70-5.38 105.57-4.48L105.57-4.48L105.57-4.48Q106.43-3.58 107.71-3.46L107.71-3.46L107.71-3.46Q107.07-1.28 104.74 0L104.74 0L104.74 0Q102.40 1.28 99.78 1.28L99.78 1.28L99.78 1.28Q97.15 1.28 95.39 0.29L95.39 0.29L95.39 0.29Q93.63-0.70 93.12-2.37L93.12-2.37L93.12-2.37Q92.10-0.77 89.92 0.26L89.92 0.26L89.92 0.26Q87.74 1.28 84.83 1.28L84.83 1.28L84.83 1.28Q81.92 1.28 79.55 0.51L79.55 0.51L79.55 0.51Q77.18-0.26 75.68-1.92ZM89.18-27.90L89.18-27.90L89.18-27.90Q88.45-26.75 87.81-24.80L87.81-24.80L87.81-24.80Q87.17-22.85 86.11-17.63L86.11-17.63L86.11-17.63Q85.06-12.42 85.06-8.70L85.06-8.70L85.06-8.70Q85.06-4.99 85.63-3.90L85.63-3.90L85.63-3.90Q86.21-2.82 87.23-2.82L87.23-2.82L87.23-2.82Q89.28-2.82 90.78-4.77L90.78-4.77L90.78-4.77Q92.29-6.72 92.86-10.18L92.86-10.18L96.26-28.93L96.26-28.93Q94.91-30.08 93.34-30.08L93.34-30.08L93.34-30.08Q91.78-30.08 90.85-29.57L90.85-29.57L90.85-29.57Q89.92-29.06 89.18-27.90ZM133.12-17.98L133.12-17.98L133.12-17.98Q135.42-22.08 135.42-26.24L135.42-26.24L135.42-26.24Q135.42-28.99 133.44-28.99L133.44-28.99L133.44-28.99Q131.90-28.99 130.30-26.37L130.30-26.37L130.30-26.37Q128.64-23.74 128.13-20.35L128.13-20.35L124.80 0L111.55 1.28L118.08-32.64L128.64-33.92L127.49-27.46L127.49-27.46Q130.62-33.92 137.66-33.92L137.66-33.92L137.66-33.92Q141.38-33.92 143.39-32L143.39-32L143.39-32Q145.41-30.08 145.41-26.14L145.41-26.14L145.41-26.14Q145.41-22.21 142.82-19.71L142.82-19.71L142.82-19.71Q140.22-17.22 135.81-17.22L135.81-17.22L135.81-17.22Q133.89-17.22 133.12-17.98ZM177.86-26.62L177.86-26.62L177.86-26.62Q177.86-23.94 175.62-22.27L175.62-22.27L175.62-22.27Q173.38-20.61 169.73-20.61L169.73-20.61L169.73-20.61Q168.19-20.61 167.30-21.06L167.30-21.06L167.30-21.06Q168-22.72 168.22-24.80L168.22-24.80L168.22-24.80Q168.45-26.88 168.45-27.46L168.45-27.46L168.45-27.46Q168.45-30.14 166.59-30.14L166.59-30.14L166.59-30.14Q165.31-30.14 163.87-28.54L163.87-28.54L163.87-28.54Q162.43-26.94 161.22-24.45L161.22-24.45L161.22-24.45Q158.53-18.69 158.53-12.86L158.53-12.86L158.53-12.86Q158.53-9.66 159.74-8.22L159.74-8.22L159.74-8.22Q160.96-6.78 163.65-6.78L163.65-6.78L163.65-6.78Q167.36-6.78 170.30-9.86L170.30-9.86L170.30-9.86Q171.14-10.82 171.58-11.90L171.58-11.90L171.58-11.90Q174.02-10.62 174.02-7.10L174.02-7.10L174.02-7.10Q174.02-3.52 170.05-1.15L170.05-1.15L170.05-1.15Q165.95 1.28 159.42 1.28L159.42 1.28L159.42 1.28Q146.43 1.28 146.43-12.48L146.43-12.48L146.43-12.48Q146.43-22.53 152.13-28.29L152.13-28.29L152.13-28.29Q157.63-33.92 167.74-33.92L167.74-33.92L167.74-33.92Q177.86-33.92 177.86-26.62ZM211.78-7.10L211.78-7.10L211.78-7.10Q211.78-4.29 214.66-3.46L214.66-3.46L214.66-3.46Q213.95-1.09 211.20 0.19L211.20 0.19L211.20 0.19Q208.90 1.28 206.37 1.28L206.37 1.28L206.37 1.28Q203.84 1.28 202.53 0.61L202.53 0.61L202.53 0.61Q201.22-0.06 200.51-1.15L200.51-1.15L200.51-1.15Q199.36-2.82 199.36-5.95L199.36-5.95L199.36-5.95Q199.36-7.81 200.38-12.93L200.38-12.93L201.28-17.79L201.28-17.79Q202.37-23.36 202.37-25.41L202.37-25.41L202.37-25.41Q202.37-28.99 200.38-28.99L200.38-28.99L200.38-28.99Q197.89-28.99 196.29-25.34L196.29-25.34L196.29-25.34Q195.65-23.94 195.20-21.82L195.20-21.82L190.85 0L177.98 1.28L187.01-44.80L199.87-46.08L199.36-43.52L199.36-43.52Q197.57-33.66 196.03-30.34L196.03-30.34L196.03-30.34Q199.62-33.92 206.21-33.92L206.21-33.92L206.21-33.92Q213.18-33.92 214.46-29.31L214.46-29.31L214.46-29.31Q214.91-27.84 214.91-26.56L214.91-26.56L214.91-26.56Q214.91-25.28 214.82-24.29L214.82-24.29L214.82-24.29Q214.72-23.30 214.40-21.50L214.40-21.50L213.57-16.90L212.10-9.66L212.10-9.66Q211.78-8.19 211.78-7.10Z" fill="url(#editing-gradient-gradient)"></path></g></g><style style="color: rgb(119, 248, 207) !important;">text {
  font-size: 64px;
  font-family: Arial Black;
  dominant-baseline: central;
  text-anchor: middle;
}</style></svg>
